<?xml version="1.0" encoding="utf-8"?>
<!DOCTYPE svg PUBLIC "-//W3C//DTD SVG 1.0//EN" "http://www.w3.org/TR/2001/REC-SVG-20010904/DTD/svg10.dtd">
<svg version="1.0" xmlns="http://www.w3.org/2000/svg" width="2363px" height="2363px" viewBox="0 0 2363 2363" preserveAspectRatio="xMidYMid meet">
 <g fill="#f8dfde">
  <path d="M0 1181.5 l0 -1181.5 1181.5 0 1181.5 0 0 1181.5 0 1181.5 -1181.5 0 -1181.5 0 0 -1181.5z m910.5 271.3 c0.3 -1.8 0.5 -7.3 0.3 -12.3 l-0.3 -9 8.5 -0.3 c5.4 -0.1 9.4 0.3 10.9 1 1.3 0.8 4.7 5.6 7.8 11.3 5.1 9.3 7.5 12.5 9.5 12.5 1.1 0 -6.6 -14 -9.6 -17.4 -2.9 -3.2 -3.7 -9.6 -1.1 -9.6 2.4 0 8.3 -5.9 9.5 -9.6 1.5 -4.5 0.5 -8.8 -3.2 -13 -4.3 -4.8 -10.4 -6.4 -25.5 -6.4 l-12.3 0 0 27.3 c0 15.1 0.3 27.7 0.7 28 1.8 1.9 4.2 0.5 4.8 -2.5z m100.9 -0.2 c16.2 -9.5 18.7 -32.9 4.9 -45.7 -8.2 -7.6 -17.3 -9.2 -27.1 -4.9 -22 9.6 -21 43.9 1.5 52.5 5.7 2.2 15.2 1.4 20.7 -1.9z m134.2 2.1 c1.7 -1.7 -1.5 -2.2 -15.2 -2.5 l-14.4 -0.4 0 -11.4 0 -11.4 14 0 c11.8 0 14 -0.2 14 -1.5 0 -1.3 -2.2 -1.5 -14 -1.5 l-14 0 0 -11.5 0 -11.5 15 0 c12.7 0 15 -0.2 15 -1.5 0 -1.3 -2.6 -1.5 -17.5 -1.5 l-17.5 0 0 27.4 0 27.5 2.3 0.4 c3.5 0.8 31.5 0.3 32.3 -0.6z m56.1 -1.1 c5.7 -2.7 10.3 -8.4 10.3 -12.8 0 -3.1 -4 -8.2 -8 -10.3 -1.6 -0.8 -7.4 -2.5 -12.9 -3.8 -13.2 -3.1 -14.3 -4.1 -13.9 -12.6 0.3 -6.2 0.5 -6.7 3.7 -8.8 2.9 -1.9 4.7 -2.3 11.8 -2.3 5 0 9.7 0.6 11.8 1.4 4.4 1.9 4.6 0.4 0.3 -1.7 -7.2 -3.4 -12.2 -4 -18.2 -2.3 -13.7 4 -18.8 15.9 -10.1 23.5 3.5 3 8.8 4.9 19.7 7.1 3.1 0.6 6.8 2 8.2 3.1 2.2 1.8 2.6 2.8 2.6 7.5 0 9.4 -4.9 12.2 -19.9 11.1 -4.2 -0.2 -9.3 -1.2 -11.4 -2 -4 -1.7 -5.2 -0.6 -1.4 1.4 8.2 4.5 19.6 5.1 27.4 1.5z m63.8 0.5 c4.7 -2.2 8.9 -6.4 10.5 -10.5 0.8 -2.3 0.7 -3.6 -0.7 -6.5 -2.4 -4.8 -7.7 -7.6 -19.5 -10.3 -12 -2.7 -13.8 -4 -14.5 -10.1 -0.7 -6.2 1.2 -10.6 5.3 -12.3 4.4 -1.8 17.1 -1.8 22.3 0.1 5.9 2.1 5.1 0.2 -1.1 -2.5 -13.1 -5.7 -27.6 -0.2 -31.2 11.7 -0.9 3 1.9 8.8 5.5 11.3 1.5 1.1 8.1 3.4 14.6 5 6.5 1.7 12.4 3.6 13.1 4.4 3.5 3.5 2.2 14.5 -2.1 16.7 -3.7 2 -16.7 2.3 -23.6 0.5 -6.8 -1.7 -8.7 -1.6 -4.9 0.5 7.7 4.1 19.7 5.1 26.3 2z m103.8 0.3 c14.6 -5 22.1 -25.3 14.8 -39.6 -6.4 -12.3 -20.7 -18.4 -32.2 -13.5 -4.9 2 -11.6 8.2 -13.8 12.6 -3.6 7.1 -4.4 13.3 -2.7 20 4.4 17.1 18.6 25.7 33.9 20.5z m228.7 -0.4 c0 -1.9 -0.7 -2 -14.5 -2 l-14.5 0 0 -26 0 -26 -2.4 0 c-1.6 0 -2.6 0.7 -3 2.3 -0.8 3.2 -0.7 50 0.2 51.4 1 1.5 5.1 1.9 21 2.1 12.6 0.2 13.2 0.1 13.2 -1.8z m-754 -10 l0 -11 8.5 0 c14.9 0 22.3 -2.9 26 -10.1 3.6 -6.8 0.5 -15.8 -6.6 -19.9 -4 -2.3 -5.6 -2.5 -18.6 -2.8 l-14.3 -0.4 0 27.6 0 27.6 2.5 0 2.5 0 0 -11z m214 -2 l0 -13 13.5 0 c11.3 0 13.5 -0.2 13.5 -1.5 0 -1.3 -2.2 -1.5 -13.5 -1.5 l-13.5 0 0 -11.5 0 -11.5 14.5 0 c12.2 0 14.5 -0.2 14.5 -1.5 0 -2.3 -33.5 -2.2 -34.4 0.1 -0.3 0.9 -0.6 13.2 -0.6 27.5 l0 25.9 3 0 3 0 0 -13z m249.5 10.8 c0.3 -1.3 0.4 -13.5 0.3 -27.3 l-0.3 -25 -2.7 -0.3 -2.8 -0.3 0 27.5 0 27.6 2.5 0 c1.7 0 2.6 -0.7 3 -2.2z m111.5 -18.3 l0 -20.5 3.3 0 c3.2 0 4.2 1.1 19.1 20.5 8.6 11.3 16.4 20.5 17.2 20.5 1.2 0 1.4 -4.2 1.4 -27.5 0 -26.5 -0.1 -27.5 -1.9 -27.5 -2.8 0 -3.5 6.3 -2.8 25.2 l0.6 15.8 -3.8 0 c-3.8 0 -3.9 -0.2 -19.5 -20.5 -8.7 -11.3 -16.4 -20.5 -17.2 -20.5 -1.2 0 -1.4 4.5 -1.4 27.5 l0 27.5 2.5 0 2.5 0 0 -20.5z m72.1 13.5 l3.2 -7 14.1 0.1 c7.7 0 15.8 0.3 18 0.7 3.6 0.7 4 1.1 6.4 7 1.4 3.4 3.1 6.2 3.9 6.2 0.7 0 1.3 -0.2 1.3 -0.5 0 -0.2 -3.7 -8.7 -8.3 -18.7 -4.6 -10.1 -10.1 -22.3 -12.2 -27.1 -5.1 -11.3 -6.2 -11.3 -11.4 0.3 -2.1 4.7 -7.5 16.6 -12 26.5 -4.4 9.9 -8.1 18.3 -8.1 18.8 0 0.4 0.5 0.7 1 0.7 0.6 0 2.4 -3.1 4.1 -7z m-760.6 -143 c26.7 -3.9 44.1 -8.9 64 -18.4 54.6 -26.3 97.4 -78.4 114.9 -140.1 3.3 -11.7 5.3 -23.2 6.6 -39.4 3.7 -43 -12.2 -91.2 -42 -127.6 -7.1 -8.6 -25.4 -26.4 -33.5 -32.6 -24.7 -18.9 -56.5 -33.3 -86.7 -39.3 -30.1 -6.1 -52.7 -6 -81.8 0 -71.4 15 -130.9 66.7 -154.3 134.1 -19.9 57.3 -11.3 122.1 22.9 173.3 10.7 16.1 19.5 23.7 32.4 28 13.1 4.4 23 2.2 32.6 -7.4 6.4 -6.4 9.6 -13.1 9.7 -20.5 0.3 -13 -9.5 -24.3 -24.3 -27.9 -2.5 -0.6 -10.6 -1.8 -18 -2.7 -21.5 -2.6 -31.4 -7 -42.6 -18.7 -7.3 -7.7 -10.4 -12.8 -14 -23.3 -4.8 -14.4 -4.5 -44.8 0.8 -69.4 13.5 -63.6 63.9 -115.7 127.5 -132.2 77.3 -19.9 157.5 11.2 198.2 76.8 12.5 20.1 19.3 37.9 24.2 63.3 3.2 16.2 3.3 48 0.1 65.1 -4.5 24.4 -16.2 52.5 -29.9 71.9 -8.7 12.2 -29.2 32.7 -41.3 41.2 -12.9 9.1 -29.7 17.8 -34.4 17.8 -3.6 0 -3.8 -0.2 -6.5 -6.2 -1.6 -3.5 -9.5 -20.9 -17.6 -38.8 -8.1 -17.9 -15.5 -34.3 -16.5 -36.5 -1 -2.2 -8.2 -18.2 -16 -35.5 -7.8 -17.3 -19.8 -43.9 -26.7 -59 -6.9 -15.1 -15.6 -34.5 -19.5 -43 -3.8 -8.5 -8.3 -18.5 -10 -22.2 l-3.1 -6.8 -31.8 0 c-17.6 0 -31.9 0.1 -31.9 0.3 0 0.2 6.6 14 14.6 30.8 8 16.7 16.1 33.6 17.9 37.4 1.8 3.9 6.5 13.8 10.5 22 4 8.3 8.9 18.6 11 23 4.5 9.6 11.8 24.7 27.5 57.5 6.5 13.5 13.8 28.8 16.3 34 2.4 5.2 6.4 13.6 8.7 18.5 2.4 5 8.2 17.1 13 27 4.7 9.9 9.6 20.1 10.7 22.8 1.1 2.6 2.6 4.7 3.2 4.7 0.6 0 7.4 -0.9 15.1 -2z m279.5 -137 l0 -139 -23 0 -23 0 0 139 0 139 23 0 23 0 0 -139z m203.6 115.5 c5 -12.6 26.1 -65.7 46.9 -118 20.8 -52.2 41.5 -104.2 46 -115.5 l8.1 -20.5 -2.9 -0.3 c-1.6 -0.2 -3.3 0 -3.8 0.5 -0.4 0.4 -8 19.3 -16.9 41.8 -8.8 22.6 -21.8 55.4 -28.7 73 -13.4 34.1 -23.6 60.1 -37.9 96.8 l-8.9 22.7 -3.3 -0.2 c-3.8 -0.3 0.2 8.1 -36.5 -76.8 -11.3 -26.1 -31.3 -72.2 -44.4 -102.5 l-23.9 -55 -27.7 -0.3 c-15.2 -0.1 -27.7 0 -27.7 0.3 0 0.7 6 14 33.4 74.5 25.6 56.3 47.9 105.4 75.9 167.3 l16.2 35.7 13.4 -0.2 13.5 -0.3 9.2 -23z m181.4 -62.2 c0 -79.6 0.1 -86.6 1.9 -97.3 5.6 -34.1 20.9 -59.4 42.6 -70.7 11 -5.7 18 -7.3 31.8 -7.3 13.8 0 19.8 1.1 29.5 5.6 17.1 7.8 28.3 24.4 33.1 49.4 3.8 19.6 4.1 27.9 4.2 117.9 l0 88.1 24 0 23.9 0 0 -73.2 c-0.1 -97.3 -1 -115.1 -7.1 -138.3 -11 -42.3 -40.3 -65.4 -83.4 -65.7 -12.4 -0.1 -20.4 1.1 -32 4.8 -16.7 5.4 -34.2 17.1 -45 30.1 -5.6 6.8 -14.6 20.9 -15.9 25.1 -0.6 1.7 -1.5 2.2 -4.2 2.2 l-3.4 0 0 -31.5 0 -31.5 -23.5 0 -23.5 0 0 139 0 139 23.5 0 23.5 0 0 -85.7z m321.5 81.3 c25.1 -8.4 48.6 -24.4 72.5 -49.3 9.2 -9.6 11.4 -11.3 13.9 -11.3 l3.1 0 0 32.5 0 32.5 24.4 0 24.3 0 0.7 -3.7 c0.7 -4.7 0.8 -114 0 -116.9 -0.5 -1.9 -1 -2 -4.8 -1.3 -11.1 2.1 -22.6 8.7 -30.5 17.6 -2.7 3 -7.6 10.7 -10.9 17.1 -10.9 21.1 -22.4 34.6 -39.9 47.2 -11.2 7.9 -18 11.3 -29 14.6 -8 2.3 -9.9 2.5 -21.3 2.1 -14.7 -0.6 -21.5 -2.3 -32.7 -7.7 -10.5 -5.2 -18.8 -13.1 -23.4 -22.6 -3.2 -6.5 -3.4 -7.4 -3.7 -19.9 -0.9 -30.8 9.1 -44.3 46.7 -63 16.9 -8.4 25.3 -11.9 75.4 -31.1 46 -17.5 53.4 -21.1 63.2 -30.9 7.5 -7.5 10 -13.2 10 -22.5 -0.1 -6.2 -0.5 -8.4 -2.8 -12.8 -9.5 -18.2 -38.8 -36 -68.6 -41.6 -10.5 -2 -29.3 -2.1 -40.3 -0.1 -33.6 5.8 -64.8 28.4 -81.1 58.5 -5 9.2 -6.1 14.1 -4.7 20.1 2.2 9 10.3 16.9 17.5 16.9 5.7 0 14.6 -6.8 16.5 -12.6 1 -2.9 0.6 -4.7 -2.7 -14.1 -3.3 -9.5 -3.7 -11.9 -3.7 -19.8 0 -7.6 0.4 -9.9 2.6 -14.6 3.6 -7.8 9.2 -13.1 19.1 -17.9 10.9 -5.3 24.7 -8.7 38.3 -9.6 25.2 -1.5 44.1 5.5 55.4 20.5 8.1 10.7 10.4 18.7 9.8 33.3 -0.6 12.2 -2.9 19.1 -9.1 27.3 -8.3 10.9 -18.3 16.7 -44 25.4 -43.8 14.8 -84.4 34.8 -107.2 52.6 -29.4 22.9 -38.5 48.8 -26 73.5 7.3 14.4 24.1 26.9 43.2 32.1 11 3.1 17.3 3.8 28.8 3.5 8.4 -0.3 11.9 -1 21 -4z m-757.5 -315.6 c9.5 -4.8 16.8 -16.9 15.6 -25.5 -2 -12.9 -16 -24.6 -27.9 -23.2 -12.1 1.5 -23.6 13.9 -23.7 25.8 0 9.2 8.7 20.8 18.3 24.3 5.3 1.9 12.2 1.4 17.7 -1.4z m76.9 0 c13.8 -7 19.2 -21.7 12.6 -33.8 -3.5 -6.4 -7.1 -9.6 -14.3 -13 -6.4 -2.9 -11.7 -2.7 -18.4 0.8 -16.2 8.3 -20.3 25.9 -9.2 38.9 8.1 9.5 19.4 12.2 29.3 7.1z"/>
  <path d="M911.4 1428.2 c-0.5 -0.4 -1 -6.1 -1 -12.9 l0 -12.3 11.3 0 c17.1 0 20.3 1.9 20.3 12.4 0 6.7 -1.2 10.1 -4.2 11.7 -2.4 1.3 -24.8 2.2 -26.4 1.1z"/>
  <path d="M992.1 1452 c-5.4 -1.2 -8.7 -4.1 -11.4 -10 -1.7 -3.7 -2.1 -6.4 -2 -14.8 0.1 -13 2.4 -18.5 9.3 -21.9 5.2 -2.7 16.1 -3.1 21.4 -0.9 7.6 3.2 11.2 12.4 10.4 26.1 -1 14.9 -6.1 21.3 -17.6 22 -3.1 0.2 -7.7 0 -10.1 -0.5z"/>
  <path d="M1353.5 1452.1 c-4.9 -1.2 -8.3 -4 -10.7 -8.9 -2 -4.1 -2.3 -6.2 -2.3 -15.7 0 -12.7 1.5 -16.8 7.3 -21.3 3.1 -2.3 4.7 -2.7 11.6 -3 10.7 -0.4 15.9 2 19.5 9.1 2.1 4.2 2.4 6.2 2.4 15 0.1 16.2 -4 22.9 -14.9 24.7 -6.6 1.1 -8.6 1.1 -12.9 0.1z"/>
  <path d="M844.7 1429.3 c-0.4 -0.3 -0.7 -6.4 -0.7 -13.5 l0 -13 13 0.4 c12.6 0.3 13 0.4 15.7 3.1 2.6 2.5 2.8 3.4 2.8 10.1 0 8.5 -1.4 10.9 -7.4 12.6 -4 1.1 -22.4 1.4 -23.4 0.3z"/>
  <path d="M1498 1435.3 c0 -1.6 2.3 -8.6 5.2 -15.6 l5.3 -12.8 3.4 0.3 c3.2 0.3 3.4 0.6 8.2 11.8 2.8 6.7 4.9 13.1 4.9 15.3 l0 3.7 -13.5 0 -13.5 0 0 -2.7z"/>
 </g>
 <g fill="#253c99">
  <path d="M994 1458.9 c-10 -1.6 -16.6 -6.2 -20.6 -14.6 -3.7 -7.5 -4.5 -20.3 -1.9 -28.7 2.3 -7.3 7.9 -13.6 14.7 -16.7 6.5 -2.9 19.1 -3.2 25 -0.7 5.5 2.4 12.3 9.2 14.6 14.6 4.5 10.5 3.5 25.6 -2.4 34.5 -5.8 8.9 -17.7 13.5 -29.4 11.6z m14.7 -12 c8.9 -5.5 10.9 -25.1 3.6 -34.8 -7.1 -9.3 -22.7 -7.6 -28.1 3 -4.6 9.2 -2.7 24.6 4 30.7 4.6 4.2 14.5 4.7 20.5 1.1z"/>
  <path d="M1183.7 1458.8 c-3.2 -0.4 -7.7 -1.6 -10 -2.7 -6.9 -3.2 -7 -3.2 -5.1 -7.7 0.9 -2.1 1.7 -4 1.9 -4.2 0.1 -0.1 2.7 0.9 5.7 2.3 10.2 4.7 22.7 4.3 26.3 -0.8 3.7 -5.3 0.2 -9.8 -9.3 -11.7 -15.8 -3.1 -21.9 -6.6 -24 -13.7 -4.8 -16.2 13.1 -28.5 32.9 -22.7 5.4 1.6 10.9 4.8 10.9 6.3 0 0.5 -0.7 2.4 -1.5 4.3 l-1.4 3.5 -5.7 -2.8 c-11.1 -5.6 -23.5 -2.9 -24.2 5.2 -0.4 5 2.1 6.8 13.9 9.6 11.7 2.7 14.7 4.1 18.3 8.3 2.1 2.6 2.6 4.2 2.6 8.9 0 4.8 -0.5 6.5 -2.9 9.8 -4.9 6.8 -15.5 9.8 -28.4 8.1z"/>
  <path d="M1249.2 1458.9 c-6.4 -0.8 -17.2 -5 -17.2 -6.7 0 -1.7 3 -8.2 3.8 -8.2 0.4 0 1.7 0.7 2.9 1.5 5.4 3.8 19.3 5.3 25.8 2.8 2.6 -0.9 4.6 -5.9 3.6 -8.6 -1.3 -3.3 -1.3 -3.3 -14.6 -6.7 -12.9 -3.3 -16.4 -5.2 -19 -10.6 -3.9 -8.3 0.1 -18.6 8.9 -23.1 7.1 -3.7 19.6 -3.8 27.3 -0.4 7.1 3.1 7.6 3.9 5.7 8.8 l-1.6 4.1 -5 -2.6 c-5.7 -3 -14 -3.9 -19.2 -2.2 -6.4 2.1 -8.3 10 -3.3 13.3 1.2 0.8 5.8 2.2 10.2 3.2 15 3.2 20.7 6.9 22.1 14.1 1 5.4 -0.4 10.2 -4.2 14.4 -5.6 6.1 -13.9 8.3 -26.2 6.9z"/>
  <path d="M1353.7 1458.6 c-16.5 -3.5 -26.2 -21.7 -21.3 -40.1 1.9 -7.1 3.9 -10.6 8.6 -14.9 6.1 -5.5 10.2 -7 19.5 -7 18.9 -0.2 29.7 11.5 29.7 31.9 -0.1 21.3 -16 34.3 -36.5 30.1z m18.1 -12.8 c6.6 -6.1 8.7 -21.5 4 -30.7 -6.2 -12.3 -24.3 -11.9 -30.4 0.6 -1.3 2.7 -1.8 6.1 -1.9 11.8 0 12.3 4.4 19.7 13 21.5 4.7 1 12.5 -0.7 15.3 -3.2z"/>
  <path d="M837.8 1458.3 c-1.7 -0.4 -1.8 -2.7 -1.8 -31 l0 -30.5 17.3 0.4 c16.2 0.3 17.5 0.4 21.6 2.8 5.8 3.3 8.5 8.6 8.5 16.5 -0.1 14 -8 19.5 -27.9 19.5 l-8.5 0 0 11 c0 6.1 -0.3 11 -0.7 11.1 -3.9 0.4 -7.1 0.5 -8.5 0.2z m27.3 -32.3 c5.1 -1.4 7.2 -4.1 7.3 -9.5 0.1 -3.6 -0.4 -5 -2.7 -7.2 -2.6 -2.6 -3.4 -2.8 -12.7 -3.1 l-10 -0.4 0 9.9 c0 5.5 0.3 10.3 0.7 10.6 1 1.1 13.4 0.8 17.4 -0.3z"/>
  <path d="M902.7 1458.3 c-0.4 -0.3 -0.7 -14.3 -0.7 -31 l0 -30.3 15.3 0 c17.4 0 23.7 1.3 27.9 5.7 1.5 1.6 3.2 4.1 3.7 5.6 1.5 3.9 1.4 11.1 -0.3 15 -1.4 3.6 -6.9 8.7 -9.2 8.7 -1.9 0 -1.8 0.5 0.9 3.2 2.4 2.4 12.7 20.9 12.7 22.7 0 1.5 -9.3 1.4 -11.2 -0.1 -0.9 -0.7 -4.1 -5.8 -7.1 -11.3 -3.1 -5.7 -6.5 -10.5 -7.8 -11.3 -1.3 -0.7 -4.9 -1.1 -7.9 -1 l-5.5 0.3 0.4 9.1 c0.2 5.1 0 10.6 -0.4 12.3 -0.6 2.9 -0.9 3.1 -5.4 3.1 -2.6 0 -5.1 -0.3 -5.4 -0.7z m32.9 -34.8 c1.4 -0.9 2.6 -2.9 3 -5.1 1.6 -8.8 -3.2 -12.4 -16.6 -12.4 l-8.5 0 0 9.2 c0 5.1 0.3 9.5 0.6 9.8 1.6 1.2 19.2 0 21.5 -1.5z"/>
  <path d="M1050 1458.2 c-1.1 -0.4 -1.5 -56.8 -0.4 -59.6 0.5 -1.4 3.3 -1.6 20.5 -1.6 l19.9 0 0 4.5 0 4.5 -14.5 0 -14.5 0 0 8.5 0 8.5 13.5 0 13.5 0 0 4.5 0 4.5 -13.5 0 -13.5 0 0 13.3 0 13.4 -5 -0.1 c-2.7 -0.1 -5.4 -0.2 -6 -0.4z"/>
  <path d="M1108.6 1458.3 c-0.3 -0.4 -0.6 -14.3 -0.6 -31 l0 -30.3 20.5 0 20.5 0 0 4.5 0 4.5 -15 0 -15 0 0 8.5 0 8.5 14 0 14 0 0 4.5 0 4.5 -14 0 -14 0 0 8.5 0 8.5 12.5 0.1 c18.8 0.2 17 -0.3 17 4.9 l0 4.5 -19.6 0.2 c-10.8 0.1 -19.9 -0.1 -20.3 -0.4z"/>
  <path d="M1299 1427.8 l0 -30.9 5.8 0.3 5.7 0.3 0 30.5 0 30.4 -5.7 0.2 -5.8 0.2 0 -31z"/>
  <path d="M1412.3 1458.3 c-1 -0.4 -1.3 -7.5 -1.3 -30.9 l0 -30.4 4.4 0 4.4 0 15.8 20.5 c8.6 11.3 16 20.5 16.3 20.5 0.3 0 0.5 -9.2 0.4 -20.5 l-0.2 -20.5 5.5 0 5.4 0 -0.2 30.8 -0.3 30.7 -2.5 0.1 c-1.4 0.1 -3.4 -0.2 -4.5 -0.6 -1.1 -0.4 -9 -9.9 -17.5 -21 l-15.5 -20.3 -0.5 20.9 -0.5 20.9 -4 0.1 c-2.2 0.1 -4.6 -0.1 -5.2 -0.3z"/>
  <path d="M1480 1457.9 c0 -0.4 4.3 -10.3 9.6 -22 5.3 -11.8 11.4 -25.2 13.5 -29.9 l3.8 -8.5 4.8 -0.3 4.8 -0.3 4 8.8 c2.1 4.8 8 17.9 13.1 29.1 5.1 11.2 9.6 21.1 9.9 22.1 0.5 1.5 -0.2 1.7 -5.2 1.6 l-5.7 -0.2 -2.7 -6.4 c-2.5 -5.9 -3 -6.5 -6.6 -7.1 -2.1 -0.4 -8.9 -0.7 -15 -0.5 l-11.2 0.2 -3.1 6.8 c-1.6 3.7 -3.7 6.8 -4.5 6.8 -4.9 0.4 -9.5 0.3 -9.5 -0.2z m42 -23.5 c0 -0.4 -3.6 -9.2 -8.5 -20.9 l-1.7 -3.9 -1.5 3.4 c-0.8 1.9 -3.2 7.7 -5.3 12.8 l-3.9 9.2 10.4 0 c5.8 0 10.5 -0.3 10.5 -0.6z"/>
  <path d="M1562.3 1458.2 l-2.3 -0.3 0.1 -30.5 0 -30.4 6 0 5.9 0 0 26 0 26 14.5 0 14.5 0 0 5 0 5.1 -18.2 -0.2 c-10.1 -0.2 -19.3 -0.5 -20.5 -0.7z"/>
  <path d="M709.2 1305.3 c-1.1 -2.7 -6 -12.9 -10.7 -22.8 -4.8 -9.9 -10.6 -22 -13 -27 -2.3 -4.9 -6.3 -13.3 -8.7 -18.5 -2.5 -5.2 -9.8 -20.5 -16.3 -34 -15.7 -32.8 -23 -47.9 -27.5 -57.5 -2.1 -4.4 -7 -14.7 -11 -23 -4 -8.2 -8.6 -17.9 -10.3 -21.5 -1.7 -3.6 -10.4 -21.8 -19.4 -40.5 l-16.3 -34 36.2 -0.3 c19.8 -0.1 36.3 0 36.5 0.2 0.4 0.3 2.6 5.2 21.3 46.6 4.8 10.7 18.5 41.1 30.5 67.5 11.9 26.4 22.5 49.8 23.5 52 1 2.2 8.4 18.6 16.5 36.5 8.1 17.9 16 35.3 17.6 38.8 1.5 3.4 3.1 6.2 3.5 6.2 2 0 23.2 -12 31.4 -17.8 12.1 -8.5 32.6 -29 41.3 -41.2 13.8 -19.4 25.5 -47.6 29.9 -71.9 3 -16.8 3 -43.2 -0.1 -59.1 -4.9 -25.3 -11.7 -43.1 -24.2 -63.3 -35.6 -57.4 -103.9 -90 -170.2 -81.1 -59.2 7.8 -111.2 45.4 -136.5 98.4 -12 25.3 -18.2 55.4 -16.9 82.1 1 18.9 5.7 30.8 17.1 42.7 11.2 11.7 21.1 16.1 42.6 18.7 7.4 0.9 15.5 2.1 18 2.7 11.3 2.8 20.5 10.5 23.1 19.5 1.9 6.6 1.7 16.7 -0.6 23.3 -2.6 7.7 -11.8 16.9 -19.5 19.5 -15.7 5.3 -35.4 -0.5 -48.6 -14.3 -10.2 -10.6 -24.1 -34.9 -31.9 -55.7 -16.3 -43.4 -16.9 -94.3 -1.8 -137.8 28.6 -82.6 109.1 -138.7 198.9 -138.7 46 0 93.4 16 129.9 43.9 8.1 6.2 26.4 24 33.5 32.6 18.9 23.1 33.3 53.1 38.9 81 3.9 19.7 5 44.8 2.5 61.5 -4.9 33.5 -13.6 58.5 -29.7 85.5 -30.9 51.6 -77.8 86.9 -132.2 99.4 -10.6 2.4 -35.2 6.1 -41.1 6.1 -4 0 -4.2 -0.2 -6.2 -4.7z"/>
  <path d="M961 1168 l0 -142 26 0 26 0 0 142 0 142 -26 0 -26 0 0 -142z"/>
  <path d="M1158.3 1274.3 c-25.6 -56.7 -49.2 -108.5 -75.8 -167.3 -30.6 -67.2 -36.5 -80.4 -36.5 -80.7 0 -0.2 14.5 -0.2 32.2 -0.1 l32.2 0.3 23.9 55 c13.1 30.3 33 76.4 44.4 102.5 11.3 26.1 23 53.1 26 60 3 6.9 5.9 13.6 6.5 15 1 2.6 1.2 2.1 38.9 -94 5.5 -14 15.6 -39.7 22.4 -57 6.8 -17.3 16.8 -42.7 22.2 -56.5 l9.9 -25 7.8 -0.3 c6.1 -0.2 7.7 0 7.3 1 -2.2 5.6 -86 216.3 -103.1 259.3 l-9.2 23 -16.5 0.3 -16.4 0.2 -16.2 -35.7z"/>
  <path d="M1345 1168 l0 -142 26.5 0 26.5 0 0 31.8 0 31.7 3.1 -6 c15.6 -30.3 41.7 -49.9 73.9 -55.6 9.5 -1.7 30.3 -1.6 40 0 34.4 6 57.4 28.3 66.9 64.6 4 15 5.7 29.2 6.6 53 0.3 9.5 0.8 154.2 0.5 163.3 0 0.9 -6.1 1.2 -27 1.2 l-27 0 0 -88.2 c0 -48.6 -0.2 -89.4 -0.4 -90.8 -0.2 -1.4 -0.7 -5.9 -1.1 -10 -3.1 -34.4 -15.2 -57 -35.7 -66.4 -9.2 -4.2 -15.6 -5.6 -26.5 -5.6 -10.7 0 -18.6 2 -28.8 7.3 -21.7 11.3 -37 36.6 -42.6 70.7 -1.8 10.7 -1.9 17.7 -1.9 97.3 l0 85.7 -26.5 0 -26.5 0 0 -142z"/>
  <path d="M1675.9 1309 c-37.7 -6.4 -61.2 -29.5 -61.3 -60 0 -30.8 23.6 -55.5 78.9 -82.5 20.5 -9.9 37.2 -16.8 60.2 -24.6 19.1 -6.5 26.2 -9.7 34.3 -15.8 18.2 -13.6 24.2 -38.3 13.9 -56.9 -10.8 -19.4 -28.9 -28.5 -55 -27.6 -18.2 0.7 -41.2 8.7 -50.1 17.6 -9.8 9.8 -11.4 20.7 -5.5 37.9 5 14.5 4.8 20 -1.1 26.2 -4.2 4.5 -9.4 6.7 -15.7 6.7 -10.3 0 -18 -6.4 -20.5 -17.1 -2.7 -11.2 1.3 -23 13 -38.8 19.1 -25.7 46.7 -42.2 78.5 -46.7 2.8 -0.4 10.9 -0.7 18 -0.7 20.7 0 37.9 4.1 55.6 13.1 16.9 8.6 30.2 19.8 35.2 29.9 8.5 16.8 3.8 34.5 -12.4 46.7 -10.1 7.6 -15.3 10 -56.4 25.6 -47.4 18 -59.8 23.1 -76.6 31.5 -36.3 18.1 -47.7 32.7 -46.7 60.1 0.3 9 0.7 10.7 3.7 16.8 4.6 9.4 12.9 17.4 23.4 22.6 10.6 5.2 18 7 29.8 7.6 15.8 0.6 30.1 -4.4 47.2 -16.6 17.6 -12.6 29 -26.1 39.9 -47.2 3.3 -6.4 8.2 -14.1 10.9 -17.1 9.1 -10.2 22.1 -17 35.3 -18.3 l6.5 -0.7 0.1 62.4 c0 34.3 -0.3 63.4 -0.6 64.7 l-0.6 2.2 -27.4 0 -27.4 0 0 -32.6 0 -32.5 -10.9 11.4 c-24 24.9 -47.3 40.7 -72.6 49.3 -10.4 3.6 -11.7 3.8 -25 4 -7.7 0.1 -16.1 -0.2 -18.6 -0.6z"/>
  <path d="M938.3 991.4 c-2.3 -0.8 -6.2 -3.3 -8.7 -5.5 -15.2 -13.4 -12.6 -37.2 5.2 -47.6 6.7 -4 18 -4.5 25.3 -1.1 7.3 3.3 11 6.6 14.3 12.9 7.8 14.2 2 32.5 -12.6 40 -5.6 2.9 -17.5 3.5 -23.5 1.3z"/>
  <path d="M1016.5 991.7 c-6.1 -2.5 -9.4 -4.7 -12.9 -8.8 -8.5 -10 -9.1 -25.8 -1.3 -36.1 8.9 -11.7 23.6 -15.2 36.5 -8.7 6.5 3.2 9.9 6.6 13.5 13.3 3.2 5.9 3.1 19.3 -0.1 25.3 -2.9 5.5 -8.1 10.7 -13.5 13.5 -5 2.6 -17.5 3.5 -22.2 1.5z"/>
 </g>
</svg>
